<?xml version="1.0" encoding="utf-8"?>
<!-- Generator: Adobe Illustrator 21.0.2, SVG Export Plug-In . SVG Version: 6.00 Build 0)  -->
<svg version="1.1" id="Layer_1" xmlns="http://www.w3.org/2000/svg" xmlns:xlink="http://www.w3.org/1999/xlink" x="0px" y="0px"
	 viewBox="0 0 40 40" style="enable-background:new 0 0 40 40;" xml:space="preserve">
<style type="text/css">
	.st0{fill:#FFFFFF;}
	.st1{fill:#DC7227;}
</style>
<circle class="st0" cx="20" cy="20" r="16"/>
<g>
	<g>
		<circle class="st0" cx="20" cy="20" r="18"/>
		<path class="st1" d="M20,6c7.7,0,14,6.3,14,14s-6.3,14-14,14S6,27.7,6,20S12.3,6,20,6 M20,2C10.1,2,2,10.1,2,20s8.1,18,18,18
			s18-8.1,18-18S29.9,2,20,2L20,2z"/>
	</g>
	<g>
		<polyline class="st0" points="14,15 20,20 28,12 		"/>
		<polygon class="st1" points="20.1,21.4 13.4,15.8 14.6,14.2 19.9,18.6 27.3,11.3 28.7,12.7 		"/>
	</g>
</g>
</svg>
