<?xml version="1.0" encoding="utf-8"?>
<!-- Generator: Adobe Illustrator 21.0.2, SVG Export Plug-In . SVG Version: 6.00 Build 0)  -->
<svg version="1.1" id="Layer_1" xmlns="http://www.w3.org/2000/svg" xmlns:xlink="http://www.w3.org/1999/xlink" x="0px" y="0px"
	 viewBox="0 0 300 120" style="enable-background:new 0 0 300 120;" xml:space="preserve">
<style type="text/css">
	.st0{fill:#FFFFFF;}
</style>
<g>
	<g>
		<polygon class="st0" points="45,38.2 46.3,40.9 118.2,11.3 68.7,110.2 39.2,80.7 37.1,82.9 69.5,115.3 124.5,5.5 		"/>
		<path class="st0" d="M20.9,11.3L126,54.6l-55.6,55.6L20.9,11.3 M14.6,5.5l54.9,109.9l61.8-61.8L14.6,5.5L14.6,5.5z"/>
		<polygon class="st0" points="47.6,37.1 48.8,39.9 13.1,54.6 41,82.5 39,84.8 7.7,53.5 		"/>
	</g>
	<g>
		<path class="st0" d="M171.6,12.6v13.7h15.2v1.9h-15.2v14.2h-1.9V10.7h19.1v1.9H171.6z"/>
		<path class="st0" d="M208.6,31.6c-0.9,0.1-1.7,0.2-2.7,0.2h-9.3v10.6h-1.9V10.7h11.2c7.8,0,12.3,3.8,12.3,10.4
			c0,5.4-2.8,8.9-7.8,10.2l7.9,11.1H216L208.6,31.6z M205.9,29.9c6.6,0,10.4-3.1,10.4-8.8c0-5.6-3.8-8.6-10.4-8.6h-9.3v17.4H205.9z"
			/>
		<path class="st0" d="M225.1,42.4V10.7h1.9v31.7H225.1z"/>
		<path class="st0" d="M242.8,24.4c6.2,0.1,10.2,3.2,10.2,8.4c0,5.7-4.1,9.6-10.7,9.6c-3.4,0-6.9-1.1-9.3-2.9l0.9-1.6
			c2.3,1.7,5.3,2.7,8.3,2.7c5.6,0,9-3.2,8.9-7.7c0-4.6-3.4-7-9-7h-3.4v-1.4l10.4-12h-14.8v-1.9h17.3v1.4l-10.6,12.2L242.8,24.4z"/>
		<path class="st0" d="M271.1,10.7c9,0,16.3,7,16.3,15.9c0,8.8-7.2,15.8-16.3,15.8h-12.5V10.7H271.1z M260.4,40.5h10.7
			c7.9,0,14.3-6.2,14.3-13.9c0-7.8-6.4-14-14.4-14h-10.6V40.5z"/>
		<path class="st0" d="M193.8,56.1l-1.1,1.4c-2.6-2.4-6.2-3.9-10-3.9c-8,0-14.5,6.2-14.5,14c0,7.8,6.5,14.1,14.5,14.1
			c3.8,0,7.3-1.4,10-3.8l1.2,1.3c-2.9,2.7-7,4.4-11.2,4.4c-9,0-16.3-7.1-16.3-15.9s7.3-15.9,16.3-15.9
			C187,51.9,190.9,53.5,193.8,56.1z"/>
		<path class="st0" d="M202.6,74.6l-4.1,9h-2.1l14.4-31.7h2l14.5,31.7h-2.1l-4.1-9H202.6z M211.8,54.1l-8.4,18.6h16.8L211.8,54.1z"
			/>
		<path class="st0" d="M260.5,83.6l0-29l-13,25.6h-0.9l-13.1-25.6v29h-1.8V51.9h2.6l12.7,24.9l12.6-24.9h2.6v31.7H260.5z"/>
		<path class="st0" d="M280.7,51.9c7.8,0,12.2,3.8,12.2,10.4c0,6.8-4.4,10.7-12.2,10.7h-9.2v10.6h-1.9V51.9H280.7z M271.5,71.2h9.2
			c6.6,0,10.4-3.1,10.4-8.8c0-5.6-3.8-8.6-10.4-8.6h-9.2V71.2z"/>
	</g>
	<g>
		<path class="st0" d="M173,98.4c0,1.2-0.9,2.8-2.3,4.3l-4.8,5.2h8v0.8h-9v-0.8l5.2-5.7c1.3-1.3,2.1-2.8,2.1-3.7
			c0-1.6-1.2-2.5-3.2-2.5c-1.3,0-2.7,0.6-3.7,1.7l-0.4-0.6c1.1-1.1,2.7-1.8,4.2-1.8C171.5,95.2,173,96.4,173,98.4z"/>
		<path class="st0" d="M187.1,102c0,4.4-2,6.8-5.5,6.8c-3.5,0-5.4-2.4-5.4-6.8s2-6.8,5.4-6.8C185.2,95.2,187.1,97.6,187.1,102z
			 M177,102c0,3.9,1.6,6.1,4.6,6.1c3,0,4.6-2.1,4.6-6.1c0-4-1.6-6-4.6-6C178.7,95.9,177,98,177,102z"/>
		<path class="st0" d="M191.5,108.8V96h-2.8v-0.8h3.7v13.5H191.5z"/>
		<path class="st0" d="M205.1,98.5c0,1.5-0.9,2.5-2.4,3c1.9,0.5,3,1.7,3,3.5c0,2.4-1.8,3.8-4.8,3.8c-3,0-4.8-1.4-4.8-3.8
			c0-1.8,1.2-3,3.1-3.5c-1.5-0.5-2.4-1.5-2.4-3.1c0-2.1,1.6-3.3,4.2-3.3C203.5,95.2,205.1,96.4,205.1,98.5z M197,104.9
			c0,2,1.5,3.1,4,3.1c2.5,0,4-1.1,4-3.1c0-1.8-1.5-3-4-3C198.5,101.9,197,103.1,197,104.9z M197.5,98.5c0,1.7,1.3,2.7,3.4,2.7
			c2.1,0,3.4-1,3.4-2.7c0-1.6-1.3-2.6-3.4-2.6C198.8,95.9,197.5,96.9,197.5,98.5z"/>
	</g>
</g>
</svg>
