<?xml version="1.0" encoding="UTF-8" standalone="no"?><!DOCTYPE svg PUBLIC "-//W3C//DTD SVG 1.1//EN" "http://www.w3.org/Graphics/SVG/1.1/DTD/svg11.dtd"><svg width="100%" height="100%" viewBox="0 0 38 38" version="1.1" xmlns="http://www.w3.org/2000/svg" xmlns:xlink="http://www.w3.org/1999/xlink" xml:space="preserve" style="fill-rule:evenodd;clip-rule:evenodd;stroke-linejoin:round;stroke-miterlimit:1.41421;"><path d="M19,1c9.934,0 18,8.066 18,18c0,9.934 -8.066,18 -18,18c-9.934,0 -18,-8.066 -18,-18c0,-9.934 8.066,-18 18,-18Zm-3.083,27.878c8.159,0 12.622,-6.76 12.622,-12.622c0,-0.192 0,-0.383 -0.013,-0.573c0.868,-0.628 1.618,-1.406 2.213,-2.297c-0.809,0.359 -1.668,0.594 -2.548,0.698c0.926,-0.554 1.62,-1.426 1.951,-2.453c-0.871,0.516 -1.824,0.881 -2.817,1.076c-0.839,-0.891 -2.01,-1.398 -3.235,-1.398c-2.436,0 -4.44,2.005 -4.44,4.44c0,0.338 0.039,0.675 0.115,1.004c-3.565,-0.178 -6.891,-1.865 -9.142,-4.634c-1.171,2.015 -0.565,4.627 1.373,5.921c-0.706,-0.021 -1.397,-0.211 -2.013,-0.555c0,0.018 0,0.037 0,0.056c0,2.104 1.496,3.932 3.558,4.349c-0.653,0.178 -1.338,0.204 -2.003,0.076c0.58,1.802 2.252,3.045 4.145,3.08c-1.571,1.235 -3.512,1.905 -5.509,1.903c-0.353,-0.001 -0.706,-0.022 -1.056,-0.064c2.028,1.302 4.389,1.992 6.799,1.989l0,0.004Z" style="fill:#0e98af;"/></svg>