<?xml version="1.0" encoding="UTF-8" standalone="no"?><!DOCTYPE svg PUBLIC "-//W3C//DTD SVG 1.1//EN" "http://www.w3.org/Graphics/SVG/1.1/DTD/svg11.dtd"><svg width="100%" height="100%" viewBox="0 0 38 38" version="1.1" xmlns="http://www.w3.org/2000/svg" xmlns:xlink="http://www.w3.org/1999/xlink" xml:space="preserve" style="fill-rule:evenodd;clip-rule:evenodd;stroke-linejoin:round;stroke-miterlimit:1.41421;"><circle cx="19.043" cy="19" r="17" style="fill:#ebebeb;"/><path d="M19.242,0.251c0.875,0.017 1.746,0.083 2.611,0.215c1.752,0.268 3.465,0.786 5.071,1.536c1.843,0.86 3.541,2.023 5.013,3.426c1.469,1.4 2.709,3.038 3.656,4.833c0.859,1.629 1.475,3.383 1.822,5.192c0.388,2.028 0.439,4.121 0.153,6.167c-0.267,1.909 -0.831,3.774 -1.668,5.51c-0.98,2.034 -2.33,3.885 -3.963,5.442c-1.692,1.614 -3.685,2.907 -5.849,3.792c-2.245,0.917 -4.663,1.386 -7.088,1.386c-2.425,0 -4.843,-0.469 -7.088,-1.386c-2.164,-0.885 -4.157,-2.178 -5.849,-3.792c-1.633,-1.557 -2.983,-3.408 -3.963,-5.442c-0.837,-1.736 -1.401,-3.601 -1.668,-5.51c-0.286,-2.046 -0.235,-4.139 0.153,-6.167c0.347,-1.809 0.963,-3.563 1.822,-5.192c0.947,-1.795 2.187,-3.433 3.656,-4.833c1.472,-1.403 3.17,-2.566 5.013,-3.426c1.606,-0.75 3.319,-1.268 5.071,-1.536c0.865,-0.132 1.736,-0.198 2.611,-0.215c0.242,-0.001 0.242,-0.001 0.484,0Zm-0.433,4c-0.69,0.013 -1.376,0.065 -2.058,0.169c-1.376,0.21 -2.721,0.618 -3.983,1.207c-1.396,0.652 -2.688,1.524 -3.816,2.574c-1.169,1.089 -2.16,2.366 -2.923,3.77c-0.689,1.269 -1.19,2.639 -1.479,4.054c-0.339,1.655 -0.391,3.368 -0.157,5.04c0.21,1.5 0.653,2.965 1.31,4.329c0.772,1.6 1.835,3.057 3.121,4.283c1.331,1.27 2.898,2.288 4.601,2.984c1.766,0.721 3.668,1.089 5.575,1.089c1.907,0 3.809,-0.368 5.575,-1.089c1.703,-0.696 3.27,-1.714 4.601,-2.984c1.286,-1.226 2.349,-2.683 3.121,-4.283c0.657,-1.364 1.1,-2.829 1.31,-4.329c0.234,-1.672 0.182,-3.385 -0.157,-5.04c-0.289,-1.415 -0.79,-2.785 -1.479,-4.054c-0.763,-1.404 -1.754,-2.681 -2.923,-3.77c-1.128,-1.05 -2.42,-1.922 -3.816,-2.574c-1.262,-0.589 -2.607,-0.997 -3.983,-1.207c-0.682,-0.104 -1.368,-0.156 -2.058,-0.169c-0.191,-0.001 -0.191,-0.001 -0.382,0Z" style="fill:#dc7227;fill-rule:nonzero;"/><path d="M27.957,13.957l-9.745,9.745l-6.705,-7.449l1.486,-1.338l5.295,5.883l8.255,-8.255c0.471,0.471 0.943,0.943 1.414,1.414Z" style="fill:#dc7227;fill-rule:nonzero;"/></svg>