<?xml version="1.0" encoding="UTF-8" standalone="no"?><!DOCTYPE svg PUBLIC "-//W3C//DTD SVG 1.1//EN" "http://www.w3.org/Graphics/SVG/1.1/DTD/svg11.dtd"><svg width="100%" height="100%" viewBox="0 0 38 38" version="1.1" xmlns="http://www.w3.org/2000/svg" xmlns:xlink="http://www.w3.org/1999/xlink" xml:space="preserve" style="fill-rule:evenodd;clip-rule:evenodd;stroke-linejoin:round;stroke-miterlimit:1.41421;"><path d="M35.013,1l-32.026,0c-1.097,0 -1.987,0.89 -1.987,1.987l0,32.026c0,1.097 0.89,1.987 1.987,1.987l17.242,0l0,-13.941l-4.692,0l0,-5.434l4.692,0l0,-4.006c0,-4.65 2.84,-7.182 6.988,-7.182c1.987,0 3.694,0.148 4.192,0.214l0,4.86l-2.877,0.001c-2.256,0 -2.693,1.071 -2.693,2.645l0,3.468l5.38,0l-0.7,5.434l-4.68,0l0,13.941l9.174,0c1.097,0 1.987,-0.89 1.987,-1.987l0,-32.026c0,-1.097 -0.89,-1.987 -1.987,-1.987" style="fill:#0e98af;fill-rule:nonzero;"/></svg>