<?xml version="1.0" encoding="utf-8"?>
<!-- Generator: Adobe Illustrator 21.0.2, SVG Export Plug-In . SVG Version: 6.00 Build 0)  -->
<svg version="1.1" id="Layer_1" xmlns="http://www.w3.org/2000/svg" xmlns:xlink="http://www.w3.org/1999/xlink" x="0px" y="0px"
	 viewBox="0 0 293.1 120.7" style="enable-background:new 0 0 293.1 120.7;" xml:space="preserve">
<style type="text/css">
	.st0{fill:#FFFFFF;}
</style>
<g>
	<g>
		<polygon class="st0" points="41.6,38.5 42.8,41.3 114.7,11.7 65.3,110.6 35.7,81 33.7,83.2 66.1,115.7 121,5.8 		"/>
		<path class="st0" d="M17.5,11.7l105.1,43.3l-55.6,55.6L17.5,11.7 M11.2,5.8l54.9,109.9l61.8-61.8L11.2,5.8L11.2,5.8z"/>
		<polygon class="st0" points="44.1,37.5 45.3,40.2 9.7,54.9 37.5,82.8 35.5,85.1 4.3,53.9 		"/>
	</g>
	<g>
		<path class="st0" d="M168.1,12.9v13.7h15.2v1.9h-15.2v14.2h-1.9V11h19.1v1.9H168.1z"/>
		<path class="st0" d="M205.1,32c-0.9,0.1-1.7,0.2-2.7,0.2h-9.3v10.6h-1.9V11h11.2c7.8,0,12.3,3.8,12.3,10.4c0,5.4-2.8,8.9-7.8,10.2
			l7.9,11.1h-2.3L205.1,32z M202.5,30.3c6.6,0,10.4-3.1,10.4-8.8c0-5.6-3.8-8.6-10.4-8.6h-9.3v17.4H202.5z"/>
		<path class="st0" d="M221.7,42.7V11h1.9v31.7H221.7z"/>
		<path class="st0" d="M239.3,24.7c6.2,0.1,10.2,3.2,10.2,8.4c0,5.7-4.1,9.6-10.7,9.6c-3.4,0-6.9-1.1-9.3-2.9l0.9-1.6
			c2.3,1.7,5.3,2.7,8.3,2.7c5.6,0,9-3.2,8.9-7.7c0-4.6-3.4-7-9-7h-3.4v-1.4l10.4-12h-14.8V11h17.3v1.4l-10.6,12.2L239.3,24.7z"/>
		<path class="st0" d="M267.7,11c9,0,16.3,7,16.3,15.9c0,8.8-7.2,15.8-16.3,15.8h-12.5V11H267.7z M257,40.8h10.7
			c7.9,0,14.3-6.2,14.3-13.9c0-7.8-6.4-14-14.4-14H257V40.8z"/>
		<path class="st0" d="M190.4,56.5l-1.1,1.4c-2.6-2.4-6.2-3.9-10-3.9c-8,0-14.5,6.2-14.5,14c0,7.8,6.5,14.1,14.5,14.1
			c3.8,0,7.3-1.4,10-3.8l1.2,1.3c-2.9,2.7-7,4.4-11.2,4.4c-9,0-16.3-7.1-16.3-15.9s7.3-15.9,16.3-15.9
			C183.5,52.2,187.4,53.8,190.4,56.5z"/>
		<path class="st0" d="M199.1,74.9l-4.1,9H193l14.4-31.7h2l14.5,31.7h-2.1l-4.1-9H199.1z M208.3,54.4L199.9,73h16.8L208.3,54.4z"/>
		<path class="st0" d="M257.1,83.9l0-29l-13,25.6h-0.9l-13.1-25.6v29h-1.8V52.2h2.6l12.7,24.9l12.6-24.9h2.6v31.7H257.1z"/>
		<path class="st0" d="M277.3,52.2c7.8,0,12.2,3.8,12.2,10.4c0,6.8-4.4,10.7-12.2,10.7h-9.2v10.6h-1.9V52.2H277.3z M268.1,71.5h9.2
			c6.6,0,10.4-3.1,10.4-8.8c0-5.6-3.8-8.6-10.4-8.6h-9.2V71.5z"/>
	</g>
	<g>
		<path class="st0" d="M169.6,98.7c0,1.2-0.9,2.8-2.3,4.3l-4.8,5.2h8v0.8h-9v-0.8l5.2-5.7c1.3-1.3,2.1-2.8,2.1-3.7
			c0-1.6-1.2-2.5-3.2-2.5c-1.3,0-2.7,0.6-3.7,1.7l-0.4-0.6c1.1-1.1,2.7-1.8,4.2-1.8C168.1,95.5,169.6,96.7,169.6,98.7z"/>
		<path class="st0" d="M183.7,102.3c0,4.4-2,6.8-5.5,6.8c-3.5,0-5.4-2.4-5.4-6.8s2-6.8,5.4-6.8C181.7,95.5,183.7,98,183.7,102.3z
			 M173.6,102.3c0,3.9,1.6,6.1,4.6,6.1c3,0,4.6-2.1,4.6-6.1c0-4-1.6-6-4.6-6C175.2,96.3,173.6,98.4,173.6,102.3z"/>
		<path class="st0" d="M188,109.1V96.3h-2.8v-0.8h3.7v13.5H188z"/>
		<path class="st0" d="M201.7,98.8c0,1.5-0.9,2.5-2.4,3c1.9,0.5,3,1.7,3,3.5c0,2.4-1.8,3.8-4.8,3.8c-3,0-4.8-1.4-4.8-3.8
			c0-1.8,1.2-3,3.1-3.5c-1.5-0.5-2.4-1.5-2.4-3.1c0-2.1,1.6-3.3,4.2-3.3C200.1,95.5,201.7,96.7,201.7,98.8z M193.5,105.2
			c0,2,1.5,3.1,4,3.1c2.5,0,4-1.1,4-3.1c0-1.8-1.5-3-4-3C195,102.3,193.5,103.4,193.5,105.2z M194.1,98.9c0,1.7,1.3,2.7,3.4,2.7
			c2.1,0,3.4-1,3.4-2.7c0-1.6-1.3-2.6-3.4-2.6C195.4,96.2,194.1,97.2,194.1,98.9z"/>
	</g>
</g>
</svg>
