<?xml version="1.0" encoding="UTF-8" standalone="no"?><!DOCTYPE svg PUBLIC "-//W3C//DTD SVG 1.1//EN" "http://www.w3.org/Graphics/SVG/1.1/DTD/svg11.dtd"><svg width="100%" height="100%" viewBox="0 0 300 84" version="1.1" xmlns="http://www.w3.org/2000/svg" xmlns:xlink="http://www.w3.org/1999/xlink" xml:space="preserve" style="fill-rule:evenodd;clip-rule:evenodd;stroke-linejoin:round;stroke-miterlimit:1.41421;"><path d="M47.746,18.538l39.87,-16.417l-12.062,24.124l-2.037,-0.84l9.507,-19.016l-32.391,13.338l41.967,17.28l-44.854,44.853l0,0l-44.852,-44.853l41.966,-17.28l-32.391,-13.338l9.495,18.992l-2.038,0.838l-12.049,-24.097l39.869,16.416Zm-40.967,19.246l37.859,37.86l-20.596,-41.193l2.038,-0.838l21.667,43.332l21.661,-43.323l2.038,0.84l-20.591,41.181l37.859,-37.859l-40.968,-16.868l-40.967,16.868Z" style="fill:#fff;"/><path d="M123.811,13.663l-0.031,2.655l-10.953,0l0,7.017l9.855,0l0,2.654l-9.855,0l0,9.031l-2.929,0l0,-21.357l13.913,0Z" style="fill:#fff;fill-rule:nonzero;"/><path d="M141.018,35.02l-4.241,-6.712c-0.488,0.041 -0.884,0.061 -1.19,0.061l-5.43,0l0,6.651l-2.929,0l0,-21.357l8.359,0c2.706,0 4.796,0.626 6.27,1.877c1.475,1.251 2.212,3.025 2.212,5.324c0,1.728 -0.402,3.183 -1.205,4.362c-0.803,1.18 -1.958,2.034 -3.463,2.563l4.973,7.231l-3.356,0Zm-5.431,-9.305c1.831,0 3.234,-0.402 4.211,-1.206c0.976,-0.803 1.464,-1.988 1.464,-3.554c0,-1.525 -0.488,-2.68 -1.464,-3.463c-0.977,-0.783 -2.38,-1.174 -4.211,-1.174l-5.43,0l0,9.397l5.43,0Z" style="fill:#fff;fill-rule:nonzero;"/><rect x="149.286" y="13.663" width="2.929" height="21.357" style="fill:#fff;fill-rule:nonzero;"/><path d="M169.667,24.403c1.261,0.996 1.891,2.339 1.891,4.027c0,1.322 -0.34,2.492 -1.022,3.509c-0.681,1.017 -1.647,1.81 -2.898,2.379c-1.251,0.57 -2.71,0.855 -4.378,0.855c-1.343,0 -2.69,-0.204 -4.043,-0.611c-1.352,-0.406 -2.517,-0.945 -3.493,-1.617l1.251,-2.379c0.854,0.671 1.81,1.19 2.868,1.556c1.057,0.366 2.135,0.549 3.234,0.549c1.749,0 3.122,-0.376 4.118,-1.129c0.997,-0.753 1.495,-1.759 1.495,-3.02c0,-1.262 -0.498,-2.223 -1.495,-2.884c-0.996,-0.661 -2.4,-0.991 -4.21,-0.991l-2.929,0l0,-1.861l6.56,-6.468l-9.855,0l-0.03,-2.655l13.729,0l0,1.861l-7.17,7.109l1.282,0.092c2.135,0.122 3.834,0.681 5.095,1.678Z" style="fill:#fff;fill-rule:nonzero;"/><path d="M190.49,15.051c1.678,0.926 2.995,2.202 3.951,3.829c0.956,1.628 1.434,3.448 1.434,5.462c0,2.013 -0.484,3.834 -1.45,5.461c-0.966,1.627 -2.293,2.903 -3.981,3.829c-1.688,0.925 -3.58,1.388 -5.675,1.388l-8.604,0l0,-21.357l8.696,0c2.074,0 3.951,0.463 5.629,1.388Zm-1.526,16.277c1.21,-0.691 2.166,-1.647 2.868,-2.868c0.702,-1.22 1.053,-2.583 1.053,-4.088c0,-1.525 -0.356,-2.898 -1.068,-4.119c-0.712,-1.22 -1.683,-2.181 -2.914,-2.883c-1.23,-0.702 -2.598,-1.052 -4.103,-1.052l-5.706,0l0,16.048l5.828,0c1.484,0 2.832,-0.346 4.042,-1.038Z" style="fill:#fff;fill-rule:nonzero;"/><path d="M220.679,16.791c-1.078,-0.478 -2.187,-0.717 -3.326,-0.717c-1.505,0 -2.888,0.366 -4.149,1.098c-1.261,0.732 -2.258,1.724 -2.99,2.975c-0.732,1.25 -1.098,2.629 -1.098,4.134c0,1.484 0.366,2.857 1.098,4.118c0.732,1.262 1.729,2.258 2.99,2.99c1.261,0.733 2.644,1.099 4.149,1.099c1.119,0 2.217,-0.229 3.295,-0.687c1.078,-0.457 2.034,-1.083 2.868,-1.876l1.77,1.922c-1.078,1.058 -2.329,1.887 -3.753,2.487c-1.424,0.6 -2.868,0.9 -4.332,0.9c-2.034,0 -3.895,-0.483 -5.583,-1.45c-1.689,-0.966 -3.021,-2.283 -3.997,-3.951c-0.977,-1.667 -1.465,-3.508 -1.465,-5.522c0,-1.993 0.494,-3.819 1.48,-5.476c0.987,-1.658 2.334,-2.965 4.043,-3.921c1.708,-0.956 3.59,-1.434 5.644,-1.434c1.485,0 2.924,0.28 4.317,0.839c1.393,0.56 2.598,1.348 3.615,2.365l-1.739,2.105c-0.813,-0.854 -1.759,-1.52 -2.837,-1.998Z" style="fill:#fff;fill-rule:nonzero;"/><path d="M242.859,29.833l-11.258,0l-2.227,5.187l-3.081,0l9.488,-21.357l3.051,0l9.458,21.357l-3.173,0l-2.258,-5.187Zm-1.128,-2.654l-4.516,-10.373l-4.454,10.373l8.97,0Z" style="fill:#fff;fill-rule:nonzero;"/><path d="M254.88,13.663l7.811,15.011l7.749,-15.011l3.509,0l0,21.357l-2.746,0l-0.031,-17.055l-7.596,14.797l-1.801,0l-7.657,-14.797l0,17.055l-2.716,0l0,-21.357l3.478,0Z" style="fill:#fff;fill-rule:nonzero;"/><path d="M294.467,15.555c1.454,1.261 2.181,3.031 2.181,5.309c0,2.379 -0.732,4.225 -2.197,5.537c-1.464,1.312 -3.518,1.968 -6.163,1.968l-5.308,0l0,6.651l-2.929,0l0,-21.357l8.237,0c2.665,0 4.724,0.631 6.179,1.892Zm-2.09,8.954c0.976,-0.803 1.464,-1.988 1.464,-3.554c0,-1.525 -0.488,-2.68 -1.464,-3.463c-0.977,-0.783 -2.38,-1.174 -4.211,-1.174l-5.186,0.03l0,9.367l5.186,0c1.831,0 3.234,-0.402 4.211,-1.206Z" style="fill:#fff;fill-rule:nonzero;"/><path d="M119.905,60.433l0,1.513l-12.106,0l0,-1.391l6.737,-7.029c0.781,-0.814 1.399,-1.607 1.855,-2.38c0.455,-0.773 0.683,-1.444 0.683,-2.014c0,-0.895 -0.333,-1.594 -1.001,-2.099c-0.667,-0.504 -1.594,-0.757 -2.782,-0.757c-0.814,0 -1.652,0.184 -2.514,0.55c-0.862,0.366 -1.643,0.874 -2.343,1.525l-0.757,-1.245c0.83,-0.732 1.753,-1.301 2.77,-1.708c1.017,-0.407 2.03,-0.61 3.039,-0.61c1.627,0 2.925,0.374 3.893,1.122c0.968,0.749 1.453,1.75 1.453,3.003c0,0.764 -0.281,1.623 -0.843,2.575c-0.561,0.951 -1.33,1.94 -2.306,2.965l-5.76,5.98l9.982,0Z" style="fill:#fff;fill-rule:nonzero;"/><path d="M135.014,47.021c1.204,1.489 1.806,3.616 1.806,6.383c0,2.766 -0.602,4.897 -1.806,6.394c-1.204,1.497 -2.937,2.246 -5.199,2.246c-2.246,0 -3.974,-0.749 -5.187,-2.246c-1.212,-1.497 -1.818,-3.628 -1.818,-6.394c0,-2.767 0.606,-4.894 1.818,-6.383c1.213,-1.489 2.941,-2.233 5.187,-2.233c2.262,0 3.995,0.744 5.199,2.233Zm-9.129,0.952c-0.895,1.228 -1.342,3.039 -1.342,5.431c0,2.391 0.447,4.202 1.342,5.43c0.895,1.229 2.205,1.843 3.93,1.843c1.725,0 3.039,-0.614 3.942,-1.843c0.903,-1.228 1.354,-3.039 1.354,-5.43c0,-2.392 -0.451,-4.203 -1.354,-5.431c-0.903,-1.229 -2.217,-1.843 -3.942,-1.843c-1.725,0 -3.035,0.614 -3.93,1.843Z" style="fill:#fff;fill-rule:nonzero;"/><path d="M144.167,44.861l0,17.085l-1.684,0l0,-15.572l-4.125,0l0,-1.513l5.809,0Z" style="fill:#fff;fill-rule:nonzero;"/><path d="M158.86,45.91c0.96,0.749 1.44,1.79 1.44,3.125c0,0.895 -0.244,1.659 -0.732,2.294c-0.488,0.634 -1.188,1.123 -2.099,1.464c1.155,0.342 2.054,0.887 2.697,1.636c0.643,0.748 0.964,1.659 0.964,2.733c0,1.514 -0.557,2.706 -1.672,3.576c-1.114,0.871 -2.632,1.306 -4.552,1.306c-1.936,0 -3.462,-0.431 -4.576,-1.294c-1.115,-0.862 -1.672,-2.042 -1.672,-3.539c0,-1.09 0.329,-2.013 0.988,-2.77c0.659,-0.757 1.575,-1.306 2.746,-1.648c-0.927,-0.341 -1.647,-0.838 -2.16,-1.489c-0.512,-0.65 -0.769,-1.423 -0.769,-2.318c0,-1.302 0.488,-2.327 1.465,-3.076c0.976,-0.748 2.294,-1.122 3.954,-1.122c1.692,0 3.018,0.374 3.978,1.122Zm-6.883,0.964c-0.699,0.546 -1.049,1.298 -1.049,2.258c0,0.96 0.354,1.717 1.061,2.27c0.708,0.553 1.68,0.83 2.917,0.83c1.237,0 2.201,-0.277 2.892,-0.83c0.692,-0.553 1.038,-1.31 1.038,-2.27c0,-0.96 -0.346,-1.712 -1.038,-2.258c-0.691,-0.545 -1.655,-0.817 -2.892,-0.817c-1.253,0 -2.229,0.272 -2.929,0.817Zm-0.5,7.616c-0.822,0.61 -1.233,1.452 -1.233,2.526c0,1.155 0.411,2.054 1.233,2.697c0.822,0.643 1.965,0.964 3.429,0.964c1.448,0 2.583,-0.321 3.405,-0.964c0.822,-0.643 1.233,-1.534 1.233,-2.673c0,-1.074 -0.415,-1.92 -1.245,-2.538c-0.83,-0.618 -1.969,-0.928 -3.417,-0.928c-1.448,0 -2.583,0.305 -3.405,0.916Z" style="fill:#fff;fill-rule:nonzero;"/></svg>