<?xml version="1.0" encoding="UTF-8" standalone="no"?><!DOCTYPE svg PUBLIC "-//W3C//DTD SVG 1.1//EN" "http://www.w3.org/Graphics/SVG/1.1/DTD/svg11.dtd"><svg width="100%" height="100%" viewBox="0 0 300 120" version="1.1" xmlns="http://www.w3.org/2000/svg" xmlns:xlink="http://www.w3.org/1999/xlink" xml:space="preserve" style="fill-rule:evenodd;clip-rule:evenodd;stroke-linejoin:round;stroke-miterlimit:1.41421;"><path d="M185.654,118.668l0,0.72l-17.28,0l0.036,-1.044l10.26,-10.764c1.32,-1.392 2.364,-2.754 3.132,-4.086c0.768,-1.332 1.152,-2.49 1.152,-3.474c0,-1.608 -0.6,-2.868 -1.8,-3.78c-1.2,-0.912 -2.844,-1.368 -4.932,-1.368c-1.296,0 -2.586,0.27 -3.87,0.81c-1.284,0.54 -2.418,1.29 -3.402,2.25l-0.504,-0.504c1.032,-1.032 2.238,-1.836 3.618,-2.412c1.38,-0.576 2.766,-0.864 4.158,-0.864c2.304,0 4.122,0.522 5.454,1.566c1.332,1.044 1.998,2.478 1.998,4.302c0,1.08 -0.402,2.328 -1.206,3.744c-0.804,1.416 -1.902,2.856 -3.294,4.32l-10.044,10.584l16.524,0Z" style="fill:#fff;fill-rule:nonzero;"/><path d="M208.262,97.428c1.728,2.184 2.592,5.304 2.592,9.36c0,4.08 -0.864,7.212 -2.592,9.396c-1.728,2.184 -4.188,3.276 -7.38,3.276c-3.192,0 -5.646,-1.098 -7.362,-3.294c-1.716,-2.196 -2.574,-5.322 -2.574,-9.378c0,-4.056 0.858,-7.176 2.574,-9.36c1.716,-2.184 4.17,-3.276 7.362,-3.276c3.192,0 5.652,1.092 7.38,3.276Zm-14.22,0.522c-1.584,2.052 -2.376,4.998 -2.376,8.838c0,3.84 0.792,6.792 2.376,8.856c1.584,2.064 3.864,3.096 6.84,3.096c2.976,0 5.262,-1.032 6.858,-3.096c1.596,-2.064 2.394,-5.016 2.394,-8.856c0,-3.84 -0.798,-6.786 -2.394,-8.838c-1.596,-2.052 -3.882,-3.078 -6.858,-3.078c-2.976,0 -5.256,1.026 -6.84,3.078Z" style="fill:#fff;fill-rule:nonzero;"/><path d="M220.61,94.224l0,25.164l-0.684,0l0,-24.444l-6.732,0l0,-0.72l7.416,0Z" style="fill:#fff;fill-rule:nonzero;"/><path d="M242.75,95.736c1.344,1.056 2.016,2.52 2.016,4.392c0,1.44 -0.402,2.64 -1.206,3.6c-0.804,0.96 -1.974,1.668 -3.51,2.124c1.872,0.432 3.324,1.206 4.356,2.322c1.032,1.116 1.548,2.514 1.548,4.194c0,2.232 -0.78,3.972 -2.34,5.22c-1.56,1.248 -3.708,1.872 -6.444,1.872c-2.76,0 -4.92,-0.624 -6.48,-1.872c-1.56,-1.248 -2.34,-2.988 -2.34,-5.22c0,-1.68 0.516,-3.078 1.548,-4.194c1.032,-1.116 2.484,-1.89 4.356,-2.322c-1.536,-0.456 -2.706,-1.164 -3.51,-2.124c-0.804,-0.96 -1.206,-2.16 -1.206,-3.6c0,-1.872 0.678,-3.336 2.034,-4.392c1.356,-1.056 3.222,-1.584 5.598,-1.584c2.376,0 4.236,0.528 5.58,1.584Zm-10.638,0.558c-1.236,0.948 -1.854,2.25 -1.854,3.906c0,1.68 0.618,3 1.854,3.96c1.236,0.96 2.922,1.44 5.058,1.44c2.136,0 3.816,-0.48 5.04,-1.44c1.224,-0.96 1.836,-2.28 1.836,-3.96c0,-1.656 -0.612,-2.958 -1.836,-3.906c-1.224,-0.948 -2.904,-1.422 -5.04,-1.422c-2.136,0 -3.822,0.474 -5.058,1.422Zm-0.864,11.628c-1.452,1.068 -2.178,2.526 -2.178,4.374c0,2.016 0.72,3.594 2.16,4.734c1.44,1.14 3.42,1.71 5.94,1.71c2.496,0 4.464,-0.564 5.904,-1.692c1.44,-1.128 2.16,-2.7 2.16,-4.716c0,-1.848 -0.72,-3.312 -2.16,-4.392c-1.44,-1.08 -3.42,-1.62 -5.94,-1.62c-2.472,0 -4.434,0.534 -5.886,1.602Z" style="fill:#fff;fill-rule:nonzero;"/><path d="M43.898,33.709l1.265,2.754l71.869,-29.593l-49.438,98.876l-29.559,-29.56l-2.058,2.225l32.447,32.448l54.934,-109.869l-79.46,32.719Z" style="fill:#fff;fill-rule:nonzero;"/><path d="M13.489,0.99l54.935,109.869l61.801,-61.801l-116.736,-48.068Zm6.327,5.88l105.055,43.259l-55.617,55.617l-49.438,-98.876Z" style="fill:#fff;fill-rule:nonzero;"/><path d="M46.434,32.665l1.211,2.777l-35.669,14.687l27.871,27.87l-1.996,2.289l-31.229,-31.229l39.812,-16.394Z" style="fill:#fff;fill-rule:nonzero;"/><path d="M170.474,8.081l0,13.678l15.218,0l0,1.902l-15.218,0l0,14.221l-1.901,0l0,-31.657l19.066,0l0,1.856l-17.165,0Z" style="fill:#fff;fill-rule:nonzero;"/><path d="M204.805,25.473c6.612,0 10.372,-3.125 10.372,-8.786c0,-5.571 -3.76,-8.606 -10.372,-8.606l-9.329,0l0,17.392l9.329,0Zm2.628,1.675c-0.861,0.136 -1.722,0.182 -2.673,0.182l-9.284,0l0,10.552l-1.902,0l0,-31.657l11.186,0c7.835,0 12.274,3.804 12.274,10.416c0,5.39 -2.762,8.922 -7.791,10.191l7.927,11.05l-2.265,0l-7.472,-10.734Z" style="fill:#fff;fill-rule:nonzero;"/><rect x="224.008" y="6.225" width="1.902" height="31.657" style="fill:#fff;fill-rule:nonzero;"/><path d="M241.672,19.901c6.16,0.136 10.235,3.171 10.235,8.379c0,5.706 -4.121,9.646 -10.733,9.646c-3.397,0 -6.884,-1.131 -9.33,-2.853l0.906,-1.63c2.265,1.675 5.299,2.717 8.333,2.717c5.616,0 8.968,-3.216 8.923,-7.744c0,-4.575 -3.397,-6.974 -9.013,-6.974l-3.442,0l0,-1.359l10.416,-12.002l-14.809,0l0,-1.857l17.255,0l0,1.449l-10.597,12.183l1.856,0.045Z" style="fill:#fff;fill-rule:nonzero;"/><path d="M259.29,36.025l10.688,0c7.926,0 14.313,-6.205 14.313,-13.95c0,-7.789 -6.387,-13.994 -14.357,-13.994l-10.644,0l0,27.944Zm10.688,-29.8c9.013,0 16.26,6.974 16.26,15.85c0,8.787 -7.247,15.807 -16.304,15.807l-12.545,0l0,-31.657l12.589,0Z" style="fill:#fff;fill-rule:nonzero;"/><path d="M192.712,51.654l-1.132,1.449c-2.626,-2.445 -6.205,-3.895 -9.963,-3.895c-8.016,0 -14.493,6.25 -14.493,13.994c0,7.79 6.477,14.086 14.493,14.086c3.758,0 7.291,-1.449 9.963,-3.85l1.178,1.314c-2.944,2.717 -6.975,4.393 -11.187,4.393c-9.012,0 -16.349,-7.111 -16.349,-15.897c0,-8.786 7.337,-15.851 16.349,-15.851c4.257,0 8.198,1.63 11.141,4.257" style="fill:#fff;fill-rule:nonzero;"/><path d="M210.647,49.616l-8.378,18.568l16.848,0l-8.47,-18.568Zm-9.193,20.471l-4.077,9.013l-2.084,0l14.358,-31.658l2.038,0l14.493,31.658l-2.084,0l-4.121,-9.013l-18.523,0Z" style="fill:#fff;fill-rule:nonzero;"/><path d="M259.427,79.1l-0.045,-29.031l-12.999,25.589l-0.86,0l-13.089,-25.589l0,29.031l-1.812,0l0,-31.658l2.627,0l12.727,24.909l12.636,-24.909l2.627,0l0,31.658l-1.812,0Z" style="fill:#fff;fill-rule:nonzero;"/><path d="M270.387,66.69l9.194,0c6.613,0 10.417,-3.125 10.417,-8.786c0,-5.571 -3.804,-8.605 -10.417,-8.605l-9.194,0l0,17.391Zm9.239,-19.248c7.79,0 12.184,3.804 12.184,10.416c0,6.793 -4.394,10.689 -12.184,10.689l-9.239,0l0,10.553l-1.902,0l0,-31.658l11.141,0Z" style="fill:#fff;fill-rule:nonzero;"/></svg>